<svg xmlns="http://www.w3.org/2000/svg" aria-hidden="true" style="position:absolute;width:0;height:0;overflow:hidden">
  <defs>
    <symbol id="icon-user" viewBox="0 0 18 18">
      <path d="M15 16.25C15 15.2033 15 14.68 14.8708 14.2541C14.58 13.2953 13.8297 12.545 12.8709 12.2542C12.445 12.125 11.9217 12.125 10.875 12.125H7.125C6.07833 12.125 5.55499 12.125 5.12914 12.2542C4.17034 12.545 3.42003 13.2953 3.12918 14.2541C3 14.68 3 15.2033 3 16.25M12.375 6.125C12.375 7.98896 10.864 9.5 9 9.5C7.13604 9.5 5.625 7.98896 5.625 6.125C5.625 4.26104 7.13604 2.75 9 2.75C10.864 2.75 12.375 4.26104 12.375 6.125Z" stroke-linecap="round" stroke-linejoin="round"/>
    </symbol>

    <symbol id="icon-mail" viewBox="0 0 18 18">
      <path d="M1.5 5.75L7.62369 10.0366C8.11957 10.3837 8.36751 10.5573 8.6372 10.6245C8.87542 10.6839 9.12458 10.6839 9.3628 10.6245C9.63249 10.5573 9.88043 10.3837 10.3763 10.0366L16.5 5.75M5.1 15.5H12.9C14.1601 15.5 14.7902 15.5 15.2715 15.2548C15.6948 15.039 16.039 14.6948 16.2548 14.2715C16.5 13.7902 16.5 13.1601 16.5 11.9V7.1C16.5 5.83988 16.5 5.20982 16.2548 4.72852C16.039 4.30516 15.6948 3.96095 15.2715 3.74524C14.7902 3.5 14.1601 3.5 12.9 3.5H5.1C3.83988 3.5 3.20982 3.5 2.72852 3.74524C2.30516 3.96095 1.96095 4.30516 1.74524 4.72852C1.5 5.20982 1.5 5.83988 1.5 7.1V11.9C1.5 13.1601 1.5 13.7902 1.74524 14.2715C1.96095 14.6948 2.30516 15.039 2.72852 15.2548C3.20982 15.5 3.83988 15.5 5.1 15.5Z" stroke-linecap="round" stroke-linejoin="round"/>
    </symbol>

    <symbol id="icon-lock" viewBox="0 0 18 18">
      <path d="M12.75 8.75V6.5C12.75 4.42893 11.0711 2.75 9 2.75C6.92893 2.75 5.25 4.42893 5.25 6.5V8.75M5.85 16.25H12.15C13.4101 16.25 14.0402 16.25 14.5215 16.0048C14.9448 15.789 15.289 15.4448 15.5048 15.0215C15.75 14.5402 15.75 13.9101 15.75 12.65V12.35C15.75 11.0899 15.75 10.4598 15.5048 9.97852C15.289 9.55516 14.9448 9.21095 14.5215 8.99524C14.0402 8.75 13.4101 8.75 12.15 8.75H5.85C4.58988 8.75 3.95982 8.75 3.47852 8.99524C3.05516 9.21095 2.71095 9.55516 2.49524 9.97852C2.25 10.4598 2.25 11.0899 2.25 12.35V12.65C2.25 13.9101 2.25 14.5402 2.49524 15.0215C2.71095 15.4448 3.05516 15.789 3.47852 16.0048C3.95982 16.25 4.58988 16.25 5.85 16.25Z" stroke-linecap="round" stroke-linejoin="round"/>
    </symbol>

    <symbol id="icon-burger" viewBox="0 0 28 28">
      <path d="M3.5 14H24.5M3.5 7H24.5M3.5 21H17.5" stroke-linecap="round" stroke-linejoin="round"/>
    </symbol>

    <symbol id="icon-close" viewBox="0 0 32 32">
      <path d="M22.6673 9.33334L9.33398 22.6667M9.33398 9.33334L22.6673 22.6667" stroke-linecap="round" stroke-linejoin="round"/>
    </symbol>

    <symbol id="icon-search" viewBox="0 0 20 20">
      <path d="M9.16666 15.8333C12.8486 15.8333 15.8333 12.8486 15.8333 9.16666C15.8333 5.48477 12.8486 2.5 9.16666 2.5C5.48477 2.5 2.5 5.48477 2.5 9.16666C2.5 12.8486 5.48477 15.8333 9.16666 15.8333Z" stroke-width="1.6" stroke-linecap="round" stroke-linejoin="round"/>
      <path d="M17.5 17.5L13.875 13.875" stroke-width="1.6" stroke-linecap="round" stroke-linejoin="round"/>
    </symbol>

    <symbol id="icon-arrow-right" viewBox="0 0 18 18">
      <path d="M2.75 9.5H12.75" stroke-width="1.3" stroke-linecap="round" stroke-linejoin="round"/>
      <path d="M9 4.25L14.25 9.5L9 14.75" stroke-width="1.3" stroke-linecap="round" stroke-linejoin="round"/>
    </symbol>

    <symbol id="icon-edit" viewBox="0 0 14 14">
      <path d="M1.62669 11.5323C1.67264 11.1188 1.69561 10.9121 1.75816 10.7188C1.81367 10.5474 1.89208 10.3842 1.99129 10.2338C2.10311 10.0642 2.2502 9.91713 2.54438 9.62295L9.91733 2.25001C10.5617 1.60568 11.6063 1.60568 12.2507 2.25001V2.25001C12.895 2.89434 12.895 3.93901 12.2507 4.58334L4.87771 11.9563C4.58353 12.2505 4.43644 12.3976 4.26687 12.5094C4.11643 12.6086 3.95327 12.687 3.78183 12.7425C3.58859 12.8051 3.38184 12.828 2.96835 12.874L1.45898 13.0417L1.62669 11.5323Z" stroke-width="1.3" stroke-linecap="round" stroke-linejoin="round"/>
    </symbol>

    <symbol id="bg-type1" viewBox="0 0 332 640">
      <path d="M365.014 -144.102L789.622 53.6273L624.168 787.007L55.2569 498.501C1.03874 471.006 -16.3072 401.896 18.5006 352.056L365.014 -144.102Z"/>
    </symbol>

    <symbol id="bg-type2" viewBox="0 0 725 689">
      <path d="M291.314 -134.233L798.058 -101.079L904.107 688.994L98.2422 671.689C27.5408 670.17 -19.2898 597.749 8.33396 532.65L291.314 -134.233Z"/>
    </symbol>

    <symbol id="icon-photo" viewBox="0 0 64 64">
      <path stroke="#FAFAFA" stroke-linecap="round" stroke-linejoin="round" d="M56.381 22.857v-9.161a6.095 6.095 0 0 0-6.077-6.095l-9.161-.028m15.238 33.57v9.143a6.095 6.095 0 0 1-6.095 6.095h-9.143M22.857 7.573l-9.16.03A6.095 6.095 0 0 0 7.618 13.7v9.158m15.238 33.524h-9.143a6.096 6.096 0 0 1-6.095-6.095v-9.143"/>
      <path fill="#FAFAFA" d="M32 37.5c1.25 0 2.313-.437 3.188-1.312S36.5 34.25 36.5 33c0-1.25-.437-2.313-1.312-3.188S33.25 28.5 32 28.5c-1.25 0-2.313.437-3.188 1.312S27.5 31.75 27.5 33c0 1.25.437 2.313 1.312 3.188S30.75 37.5 32 37.5ZM24 41c-.55 0-1.02-.196-1.412-.587A1.927 1.927 0 0 1 22 39V27c0-.55.196-1.02.588-1.412A1.923 1.923 0 0 1 24 25h3.15L29 23h6l1.85 2H40c.55 0 1.021.196 1.413.588.391.391.587.862.587 1.412v12c0 .55-.196 1.021-.587 1.413A1.928 1.928 0 0 1 40 41H24Z"/>
    </symbol>

    <symbol id="icon-arrow-down" viewBox="0 0 20 20">
      <path d="M15 8L10 13L5 8" stroke-width="2" stroke-linecap="round" stroke-linejoin="round"/>
    </symbol>

    <symbol id="icon-plus" viewBox="0 0 14 14">
      <path d="M2.1875 7H11.8125" stroke-width="1.5" stroke-linecap="round" stroke-linejoin="round"/>
      <path d="M7 2.1875V11.8125" stroke-width="1.5" stroke-linecap="round" stroke-linejoin="round"/>
    </symbol>

    <symbol id="icon-minus" viewBox="0 0 14 14">
      <path d="M2.1875 7H11.8125" stroke-width="1.5" stroke-linecap="round" stroke-linejoin="round"/>
    </symbol>

    <symbol id="icon-delete" viewBox="0 0 18 18">
      <path d="M14.0625 4.4375L3.9375 14.5625" stroke-width="1.5" stroke-linecap="round" stroke-linejoin="round"/>
      <path d="M14.0625 14.5625L3.9375 4.4375" stroke-width="1.5" stroke-linecap="round" stroke-linejoin="round"/>
    </symbol>

    <symbol id="icon-trash" viewBox="0 0 14 14">
      <path d="M9.33333 3.49999V3.03332C9.33333 2.37993 9.33333 2.05323 9.20617 1.80367C9.09432 1.58415 8.91584 1.40567 8.69632 1.29382C8.44676 1.16666 8.12006 1.16666 7.46667 1.16666H6.53333C5.87994 1.16666 5.55324 1.16666 5.30368 1.29382C5.08416 1.40567 4.90568 1.58415 4.79383 1.80367C4.66667 2.05323 4.66667 2.37993 4.66667 3.03332V3.49999M5.83333 6.70832V9.62499M8.16667 6.70832V9.62499M1.75 3.49999H12.25M11.0833 3.49999V10.0333C11.0833 11.0134 11.0833 11.5035 10.8926 11.8778C10.7248 12.2071 10.4571 12.4748 10.1278 12.6426C9.75347 12.8333 9.26342 12.8333 8.28333 12.8333H5.71667C4.73657 12.8333 4.24653 12.8333 3.87218 12.6426C3.5429 12.4748 3.27518 12.2071 3.10741 11.8778C2.91667 11.5035 2.91667 11.0134 2.91667 10.0333V3.49999" stroke-width="1.2" stroke-linecap="round" stroke-linejoin="round"/>
    </symbol>

    <symbol id="icon-clock" viewBox="0 0 14 14">
      <g clip-path="url(#clip0_264_756)">
      <path d="M6.99935 12.8334C10.221 12.8334 12.8327 10.2217 12.8327 7.00002C12.8327 3.77836 10.221 1.16669 6.99935 1.16669C3.77769 1.16669 1.16602 3.77836 1.16602 7.00002C1.16602 10.2217 3.77769 12.8334 6.99935 12.8334Z" stroke="#23262A" stroke-width="1.3" stroke-linecap="round" stroke-linejoin="round"/>
      <path d="M7 3.5V7L9.33333 8.16667" stroke="#23262A" stroke-width="1.3" stroke-linecap="round" stroke-linejoin="round"/>
      </g>
      <defs>
      <clipPath id="clip0_264_756">
      <rect width="14" height="14" fill="white"/>
      </clipPath>
      </defs>
    </symbol>

    <symbol id="icon-add" viewBox="0 0 24 24">
      <circle cx="12" cy="12" r="12" fill="#8BAA36"/>
      <path d="M12 6.75V17.25" stroke="#FAFAFA" stroke-width="2" stroke-linecap="round" stroke-linejoin="round"/>
      <path d="M6.75 12H17.25" stroke="#FAFAFA" stroke-width="2" stroke-linecap="round" stroke-linejoin="round"/>
    </symbol>

    <symbol id="icon-error" viewBox="0 0 20 20">
      <path d="M0 10C0 4.47656 4.47656 0 10 0C15.5234 0 20 4.47656 20 10C20 15.5234 15.5234 20 10 20C4.47656 20 0 15.5234 0 10ZM6.83594 8.12891L8.67578 9.96484L6.83594 11.8359C6.47266 12.2031 6.47266 12.7969 6.83594 13.1289C7.20312 13.5273 7.79688 13.5273 8.12891 13.1289L9.96484 11.3242L11.8359 13.1289C12.2031 13.5273 12.7969 13.5273 13.1289 13.1289C13.5273 12.7969 13.5273 12.2031 13.1289 11.8359L11.3242 9.96484L13.1289 8.12891C13.5273 7.79688 13.5273 7.20312 13.1289 6.83594C12.7969 6.47266 12.2031 6.47266 11.8359 6.83594L9.96484 8.67578L8.12891 6.83594C7.79688 6.47266 7.20312 6.47266 6.83594 6.83594C6.47266 7.20312 6.47266 7.79688 6.83594 8.12891Z"/>
    </symbol>

    <symbol id="icon-success" viewBox="0 0 20 20">
      <path d="M0 10C0 4.47656 4.47656 0 10 0C15.5234 0 20 4.47656 20 10C20 15.5234 15.5234 20 10 20C4.47656 20 0 15.5234 0 10ZM14.5234 8.27344C14.9492 7.84766 14.9492 7.15234 14.5234 6.72656C14.0977 6.30078 13.4023 6.30078 12.9766 6.72656L8.75 10.9531L7.02344 9.22656C6.59766 8.80078 5.90234 8.80078 5.47656 9.22656C5.05078 9.65234 5.05078 10.3477 5.47656 10.7734L7.97656 13.2734C8.40234 13.6992 9.09766 13.6992 9.52344 13.2734L14.5234 8.27344Z"/>
    </symbol>

  </defs>
</svg>